<svg id="Layer_1" data-name="Layer 1" xmlns="http://www.w3.org/2000/svg" viewBox="0 0 96 96"><defs><style>.cls-1{fill:#003d60;}.cls-2{fill:#00baee;}</style></defs><title>2020-From-Nolan</title><path class="cls-1" d="M48,17.52A30.48,30.48,0,1,1,17.52,48,30.48,30.48,0,0,1,48,17.52M48,16A32,32,0,1,0,80,48,32,32,0,0,0,48,16Z"/><path class="cls-1" d="M63.49,69.67H36.84a.76.76,0,0,1-.76-.76V30.14a.76.76,0,0,1,.76-.76h16a.75.75,0,0,1,.55.23L64,40.69a.74.74,0,0,1,.21.53V68.91A.76.76,0,0,1,63.49,69.67ZM37.6,68.14H62.73V41.52L52.51,30.9H37.6Z"/><path class="cls-1" d="M63.49,42H52.83a.76.76,0,0,1-.76-.76V30.14a.76.76,0,0,1,1.31-.53L64,40.69a.77.77,0,0,1,.15.83A.75.75,0,0,1,63.49,42Zm-9.9-1.52H61.7L53.59,32Z"/><path class="cls-1" d="M58.16,58.69h-16a.76.76,0,1,1,0-1.52h16a.76.76,0,0,1,0,1.52Z"/><path class="cls-1" d="M58.16,62.36h-16a.76.76,0,0,1-.76-.76.77.77,0,0,1,.76-.77h16a.77.77,0,0,1,.76.77A.76.76,0,0,1,58.16,62.36Z"/><path class="cls-2" d="M44.83,35a.57.57,0,0,1-.57-.57v-1a.58.58,0,0,1,1.15,0v1A.57.57,0,0,1,44.83,35Z"/><path class="cls-2" d="M44.83,44.34a.57.57,0,0,1-.57-.57v-1a.58.58,0,0,1,1.15,0v1A.57.57,0,0,1,44.83,44.34Z"/><path class="cls-2" d="M44.83,43.3A2.77,2.77,0,0,1,42,40.65a.57.57,0,0,1,.57-.58.58.58,0,0,1,.57.58,1.76,1.76,0,0,0,3.49,0,1.57,1.57,0,0,0-1.27-1.45,4,4,0,0,0-.54-.06,4.42,4.42,0,0,1-.69-.1A3,3,0,0,1,43,38.53a2.61,2.61,0,0,1-1-2.05,2.89,2.89,0,0,1,5.77,0,.57.57,0,0,1-1.14,0,1.76,1.76,0,0,0-3.49,0,1.45,1.45,0,0,0,.6,1.14,1.67,1.67,0,0,0,.66.31,3.7,3.7,0,0,0,.51.07,4.72,4.72,0,0,1,.72.09,2.7,2.7,0,0,1,2.14,2.56A2.78,2.78,0,0,1,44.83,43.3Z"/><path class="cls-1" d="M47.5,55H42.17a.76.76,0,0,1-.76-.76V48.93a.76.76,0,0,1,.76-.76H47.5a.76.76,0,0,1,.76.76v5.33A.76.76,0,0,1,47.5,55ZM42.93,53.5h3.81V49.69H42.93Z"/><path class="cls-1" d="M58.16,50.07H50.69a.76.76,0,0,1,0-1.52h7.47a.76.76,0,1,1,0,1.52Z"/><path class="cls-1" d="M58.16,54.64H50.69a.76.76,0,0,1,0-1.52h7.47a.76.76,0,0,1,0,1.52Z"/><path class="cls-1" d="M33,60.42a.76.76,0,0,1-.76-.76V26.53a.76.76,0,0,1,.76-.76H45.6a.76.76,0,0,1,0,1.52H33.75V59.66A.76.76,0,0,1,33,60.42Z"/></svg>