<svg id="Layer_1" data-name="Layer 1" xmlns="http://www.w3.org/2000/svg" viewBox="0 0 96 96"><defs><style>.cls-1{fill:#00baee;}.cls-2{fill:#003d60;}</style></defs><title>payments</title><path class="cls-1" d="M48,60.53A12.53,12.53,0,1,1,60.53,48,12.54,12.54,0,0,1,48,60.53ZM48,37A11,11,0,1,0,59,48,11,11,0,0,0,48,37Z"/><path class="cls-2" d="M48,69.83a34.07,34.07,0,0,1-4.17-.18.75.75,0,0,1-.63-.72l-.15-5.39a34.36,34.36,0,0,1-4.46-2.12l-4.28,3.3a.75.75,0,0,1-1,0,22,22,0,0,1-5.23-6.75.75.75,0,0,1,.18-.9l4.17-3.69c-.29-1-.7-2.93-.87-4l-5.33-1.61a.77.77,0,0,1-.53-.75,22.14,22.14,0,0,1,1.93-8.31.74.74,0,0,1,.86-.42l5.25,1.21a38.26,38.26,0,0,1,3.1-3.84l-2.31-4.88a.76.76,0,0,1,.23-.92,21.94,21.94,0,0,1,7.71-3.67.75.75,0,0,1,.84.36l2.73,4.88c1,0,2.86,0,3.82,0l2.73-4.88a.76.76,0,0,1,.84-.36,21.94,21.94,0,0,1,7.71,3.67.76.76,0,0,1,.23.92l-2.31,4.88a38.26,38.26,0,0,1,3.1,3.84l5.25-1.21a.74.74,0,0,1,.86.42A22.14,22.14,0,0,1,70.25,47a.77.77,0,0,1-.53.75l-5.33,1.61c-.17,1-.58,2.95-.87,4L67.69,57a.75.75,0,0,1,.18.9,22,22,0,0,1-5.23,6.75.75.75,0,0,1-1,0l-4.28-3.3A34.36,34.36,0,0,1,53,63.54l-.15,5.39a.75.75,0,0,1-.63.72A34.07,34.07,0,0,1,48,69.83Zm-3.32-1.59a61.28,61.28,0,0,0,6.64,0L51.47,63a.75.75,0,0,1,.57-.71,29.22,29.22,0,0,0,5-2.35.77.77,0,0,1,.91,0l4.2,3.24a20.61,20.61,0,0,0,4.15-5.37l-4.1-3.63a.76.76,0,0,1-.2-.83,35.66,35.66,0,0,0,1-4.56.74.74,0,0,1,.53-.67l5.23-1.59a20.35,20.35,0,0,0-1.53-6.61L62,41.08a.74.74,0,0,1-.82-.38,32.74,32.74,0,0,0-3.48-4.32.74.74,0,0,1-.19-.88l2.26-4.8a20.56,20.56,0,0,0-6.13-2.91L51,32.57a.76.76,0,0,1-.76.38c-.4-.05-4.07-.05-4.46,0a.79.79,0,0,1-.76-.38l-2.67-4.78a20.56,20.56,0,0,0-6.13,2.91l2.26,4.8a.74.74,0,0,1-.19.88A32.74,32.74,0,0,0,34.8,40.7a.74.74,0,0,1-.82.38l-5.17-1.19a20.35,20.35,0,0,0-1.53,6.61l5.23,1.59a.74.74,0,0,1,.53.67,35.66,35.66,0,0,0,1,4.56.76.76,0,0,1-.2.83l-4.1,3.63a20.61,20.61,0,0,0,4.15,5.37l4.2-3.24a.75.75,0,0,1,.91,0,29.22,29.22,0,0,0,5,2.35.75.75,0,0,1,.57.71Z"/><path class="cls-1" d="M48,43a.76.76,0,0,1-.75-.75V39.94a.75.75,0,0,1,1.5,0V42.2A.76.76,0,0,1,48,43Z"/><path class="cls-1" d="M48,56.81a.75.75,0,0,1-.75-.75V53.8a.75.75,0,0,1,1.5,0v2.26A.75.75,0,0,1,48,56.81Z"/><path class="cls-2" d="M48,54.55a3.83,3.83,0,0,1-4-3.65.75.75,0,0,1,1.5,0,2.51,2.51,0,0,0,5,0,2.22,2.22,0,0,0-1.81-2,5.32,5.32,0,0,0-.75-.09,6.68,6.68,0,0,1-1-.13,4.12,4.12,0,0,1-1.49-.72A3.54,3.54,0,0,1,44,45.1a4,4,0,0,1,8,0,.75.75,0,0,1-1.5,0,2.51,2.51,0,0,0-5,0,2.07,2.07,0,0,0,.85,1.62,2.72,2.72,0,0,0,.94.45,5.82,5.82,0,0,0,.73.09,7.28,7.28,0,0,1,1,.13A3.72,3.72,0,0,1,52,50.9,3.83,3.83,0,0,1,48,54.55Z"/><path class="cls-2" d="M48,17.52A30.48,30.48,0,1,1,17.52,48,30.48,30.48,0,0,1,48,17.52M48,16A32,32,0,1,0,80,48,32,32,0,0,0,48,16Z"/></svg>