<svg id="Layer_1" data-name="Layer 1" xmlns="http://www.w3.org/2000/svg" viewBox="0 0 96 96"><defs><style>.cls-1{fill:#00baee;}.cls-2{fill:#003d60;}</style></defs><title>2020-From-Nolan</title><path class="cls-1" d="M48,48.89A9.95,9.95,0,1,1,58,39,10,10,0,0,1,48,48.89ZM48,30.7A8.25,8.25,0,1,0,56.24,39,8.25,8.25,0,0,0,48,30.7Z"/><path class="cls-2" d="M63.46,67a.85.85,0,0,1-.85-.85,14.61,14.61,0,0,0-29.22,0,.85.85,0,1,1-1.7,0,16.31,16.31,0,0,1,32.62,0A.85.85,0,0,1,63.46,67Z"/><path class="cls-2" d="M48,17.52A30.48,30.48,0,1,1,17.52,48,30.48,30.48,0,0,1,48,17.52M48,16A32,32,0,1,0,80,48,32,32,0,0,0,48,16Z"/></svg>