<svg id="Layer_1" data-name="Layer 1" xmlns="http://www.w3.org/2000/svg" viewBox="0 0 96 96"><defs><style>.cls-1{fill:#003d60;}.cls-2{fill:#00baee;}</style></defs><title>2020-From-Nolan</title><path class="cls-1" d="M48,17.52A30.48,30.48,0,1,1,17.52,48,30.48,30.48,0,0,1,48,17.52M48,16A32,32,0,1,0,80,48,32,32,0,0,0,48,16Z"/><path class="cls-1" d="M48.5,70.48H30.8a.76.76,0,0,1-.76-.76V57a.76.76,0,1,1,1.52,0V69H47.74V57a.76.76,0,0,1,1.52,0V69.72A.76.76,0,0,1,48.5,70.48Z"/><path class="cls-2" d="M37.33,61.05a.57.57,0,0,1-.57-.57V51.84a.57.57,0,0,1,1.14,0v8.64A.57.57,0,0,1,37.33,61.05Z"/><path class="cls-2" d="M42,61.05a.58.58,0,0,1-.57-.57V51.84a.58.58,0,0,1,1.15,0v8.64A.58.58,0,0,1,42,61.05Z"/><path class="cls-1" d="M46.42,52.47a.77.77,0,0,1-.77-.76V46a.77.77,0,0,1,.77-.76.76.76,0,0,1,.76.76v5.76A.76.76,0,0,1,46.42,52.47Z"/><path class="cls-1" d="M64.71,70.48h-11a.76.76,0,0,1,0-1.52H64V46a.76.76,0,0,1,1.52,0V69.72A.76.76,0,0,1,64.71,70.48Z"/><path class="cls-2" d="M53.16,49.71a.57.57,0,0,1-.57-.57V41a.58.58,0,1,1,1.15,0v8.18A.57.57,0,0,1,53.16,49.71Z"/><path class="cls-2" d="M58,49.71a.57.57,0,0,1-.58-.57V41a.58.58,0,1,1,1.15,0v8.18A.57.57,0,0,1,58,49.71Z"/><path class="cls-1" d="M33,48.66a.76.76,0,0,1-.76-.76V32.28a.76.76,0,1,1,1.52,0V47.9A.76.76,0,0,1,33,48.66Z"/><path class="cls-1" d="M61.28,41.52a.76.76,0,0,1-.76-.76V32.28a.76.76,0,1,1,1.52,0v8.48A.76.76,0,0,1,61.28,41.52Z"/><path class="cls-2" d="M57.88,49.71H53.25a.57.57,0,0,1-.57-.57.58.58,0,0,1,.57-.57h4.63a.58.58,0,0,1,.57.57A.57.57,0,0,1,57.88,49.71Z"/><path class="cls-2" d="M42,61.05H37.34a.57.57,0,0,1-.57-.57.56.56,0,0,1,.57-.57H42a.57.57,0,0,1,.58.57A.58.58,0,0,1,42,61.05Z"/><path class="cls-1" d="M50.19,57.56H29.12a.76.76,0,0,1-.76-.76v-5a.76.76,0,0,1,.76-.76H50.19a.76.76,0,0,1,.76.76v5A.76.76,0,0,1,50.19,57.56ZM29.88,56H49.42V52.6H29.88Z"/><path class="cls-1" d="M66.45,46.48H44.67a.76.76,0,0,1-.76-.77V41a.76.76,0,0,1,.76-.77H66.45a.76.76,0,0,1,.77.77v4.75A.76.76,0,0,1,66.45,46.48ZM45.44,45H65.69V41.72H45.44Z"/><path class="cls-2" d="M49.52,36H44.9a.58.58,0,0,1-.58-.57V26.85a.58.58,0,0,1,1.15,0v8H49v-8a.57.57,0,0,1,1.14,0v8.58A.57.57,0,0,1,49.52,36Z"/><path class="cls-1" d="M62.77,32.57H31.6a.76.76,0,0,1-.77-.76v-5a.76.76,0,0,1,.77-.76H62.77a.76.76,0,0,1,.76.76v5A.76.76,0,0,1,62.77,32.57ZM32.36,31.05H62V27.62H32.36Z"/></svg>