<svg id="Layer_1" data-name="Layer 1" xmlns="http://www.w3.org/2000/svg" viewBox="0 0 96 96"><defs><style>.cls-1{fill:#003d60;}.cls-2{fill:#00baee;}</style></defs><title>2020-From-Nolan</title><path class="cls-1" d="M48,17.52A30.48,30.48,0,1,1,17.52,48,30.48,30.48,0,0,1,48,17.52M48,16A32,32,0,1,0,80,48,32,32,0,0,0,48,16Z"/><path class="cls-1" d="M66.51,67.45h-37a1.25,1.25,0,0,1-1.25-1.25V63.58a1.25,1.25,0,0,1,1.25-1.25h37a1.25,1.25,0,0,1,1.25,1.25V66.2A1.25,1.25,0,0,1,66.51,67.45ZM29.74,66H66.26V63.83H29.74Z"/><path class="cls-1" d="M30.8,63.83a.75.75,0,0,1-.75-.75V47.69a.75.75,0,0,1,1.5,0V63.08A.75.75,0,0,1,30.8,63.83Z"/><path class="cls-1" d="M41.66,63.83a.75.75,0,0,1-.75-.75V47.69a.75.75,0,0,1,1.5,0V63.08A.74.74,0,0,1,41.66,63.83Z"/><path class="cls-1" d="M65.2,63.83a.75.75,0,0,1-.75-.75V47.69a.75.75,0,0,1,1.5,0V63.08A.75.75,0,0,1,65.2,63.83Z"/><path class="cls-1" d="M39,54.78H37.14a.75.75,0,0,1,0-1.5H39a.75.75,0,0,1,0,1.5Z"/><path class="cls-2" d="M60.67,57.5a.79.79,0,0,1-.53-.22l-6.33-6.34a.74.74,0,0,1,0-1.06.75.75,0,0,1,1.06,0l6.33,6.34a.74.74,0,0,1,0,1.06A.75.75,0,0,1,60.67,57.5Z"/><path class="cls-2" d="M61.58,53.88a.79.79,0,0,1-.53-.22L57.43,50a.74.74,0,0,1,0-1.06.75.75,0,0,1,1.06,0l3.62,3.62a.77.77,0,0,1,0,1.07A.79.79,0,0,1,61.58,53.88Z"/><path class="cls-1" d="M48,45.71a5,5,0,0,1-5-4.83.75.75,0,0,1,1.5,0,3.56,3.56,0,0,0,7.1,0,.75.75,0,0,1,1.5,0A5,5,0,0,1,48,45.71Z"/><path class="cls-1" d="M39.4,45.71a4.82,4.82,0,0,1-5-4.67.75.75,0,0,1,1.5,0,3.3,3.3,0,0,0,3.55,3.17A3.45,3.45,0,0,0,43,40.88a.75.75,0,0,1,1.5,0A5,5,0,0,1,39.4,45.71Z"/><path class="cls-1" d="M56.6,45.71a5,5,0,0,1-5.05-4.83.75.75,0,0,1,1.5,0,3.45,3.45,0,0,0,3.55,3.33A3.3,3.3,0,0,0,60.15,41a.75.75,0,0,1,1.5,0A4.82,4.82,0,0,1,56.6,45.71Z"/><path class="cls-1" d="M65.2,45.87A5,5,0,0,1,60.15,41a.75.75,0,0,1,1.5,0,3.56,3.56,0,0,0,7.1,0v-.72L63.56,30.05h-31L27.25,40.32V41a3.56,3.56,0,0,0,7.1,0,.75.75,0,0,1,1.5,0,5.06,5.06,0,0,1-10.1,0V40l5.88-11.41H64.48L70.25,40V41A5,5,0,0,1,65.2,45.87Z"/><path class="cls-1" d="M35.1,41.79a.78.78,0,0,1-.26,0,.74.74,0,0,1-.44-1L38.7,29a.75.75,0,0,1,1-.45.74.74,0,0,1,.44,1L35.8,41.3A.73.73,0,0,1,35.1,41.79Z"/><path class="cls-1" d="M43.7,41.63h-.11a.76.76,0,0,1-.63-.86l1.75-11.59a.75.75,0,0,1,.85-.63.76.76,0,0,1,.63.86L44.44,41A.74.74,0,0,1,43.7,41.63Z"/><path class="cls-1" d="M52.3,41.63a.76.76,0,0,1-.75-.66L50.22,29.38a.75.75,0,0,1,1.49-.17L53,40.8a.74.74,0,0,1-.65.83Z"/><path class="cls-1" d="M60.9,41.79a.75.75,0,0,1-.71-.5L56.1,29.54a.74.74,0,0,1,.46-.95.75.75,0,0,1,1,.46L61.61,40.8a.75.75,0,0,1-.46,1A.77.77,0,0,1,60.9,41.79Z"/></svg>