<svg id="Layer_1" data-name="Layer 1" xmlns="http://www.w3.org/2000/svg" viewBox="0 0 96 96"><defs><style>.cls-1{fill:#00baee;}.cls-2{fill:#003d60;}</style></defs><title>payments</title><path class="cls-1" d="M39.35,61.74H33a.71.71,0,0,1-.5-.21.68.68,0,0,1-.2-.52l.62-12h-.14a.7.7,0,0,1-.7-.7V46.64a.7.7,0,1,1,1.4,0v1h.18a.72.72,0,0,1,.51.22.7.7,0,0,1,.19.52l-.62,12h4.86l-.61-12a.7.7,0,0,1,.19-.52.69.69,0,0,1,.51-.22h.2v-1a.7.7,0,0,1,1.4,0v1.69a.7.7,0,0,1-.7.7h-.17l.62,12a.72.72,0,0,1-.19.52A.74.74,0,0,1,39.35,61.74Z"/><path class="cls-1" d="M62.94,61.74H56.61a.69.69,0,0,1-.7-.73l.61-12h-.13a.7.7,0,0,1-.7-.7V46.64a.7.7,0,0,1,1.4,0v1h.17a.7.7,0,0,1,.7.74l-.62,12h4.87l-.62-12a.7.7,0,0,1,.7-.74h.2v-1a.7.7,0,1,1,1.4,0v1.69a.7.7,0,0,1-.7.7H63l.61,12a.69.69,0,0,1-.7.73Z"/><path class="cls-2" d="M67.13,64.75h-38a.7.7,0,1,1,0-1.4h38a.7.7,0,1,1,0,1.4Z"/><path class="cls-2" d="M65.82,61.74H30.43a.7.7,0,1,1,0-1.4H65.82a.7.7,0,0,1,0,1.4Z"/><path class="cls-2" d="M66.65,44.16H29.28a.71.71,0,0,1-.67-.48L27.3,39.85a.71.71,0,0,1,.37-.86l20-9.17a.66.66,0,0,1,.58,0l20,9.17a.71.71,0,0,1,.37.86l-1.31,3.83A.71.71,0,0,1,66.65,44.16Zm-36.87-1.4H66.14l1-2.76L48,31.22,28.83,40Z"/><path class="cls-2" d="M56.65,39.76h-17a.69.69,0,0,1-.68-.54.7.7,0,0,1,.38-.79l8.52-4.07a.72.72,0,0,1,.61,0L57,38.43a.7.7,0,0,1,.38.79A.69.69,0,0,1,56.65,39.76Zm-14-1.4H53.56l-5.43-2.59Z"/><path class="cls-2" d="M48,16.77A30.48,30.48,0,1,1,17.48,47.25,30.48,30.48,0,0,1,48,16.77m0-1.52a32,32,0,1,0,32,32,32,32,0,0,0-32-32Z"/></svg>