<svg id="Layer_1" data-name="Layer 1" xmlns="http://www.w3.org/2000/svg" viewBox="0 0 96 96"><defs><style>.cls-1{fill:#003d60;}.cls-2{fill:#00baee;}</style></defs><title>2020-From-Nolan</title><path class="cls-1" d="M48,17.52A30.48,30.48,0,1,1,17.52,48,30.48,30.48,0,0,1,48,17.52M48,16A32,32,0,1,0,80,48,32,32,0,0,0,48,16Z"/><path class="cls-2" d="M47.2,42.78a.76.76,0,0,1-.76-.76V35.4a.76.76,0,1,1,1.52,0V42A.76.76,0,0,1,47.2,42.78Z"/><path class="cls-2" d="M47.2,62.65a.76.76,0,0,1-.76-.76V55.27a.76.76,0,0,1,1.52,0v6.62A.76.76,0,0,1,47.2,62.65Z"/><path class="cls-2" d="M41.11,46.45a.67.67,0,0,1-.33-.08l-6.09-2.95a.76.76,0,0,1-.35-1,.75.75,0,0,1,1-.35l6.09,3a.76.76,0,0,1-.33,1.45Z"/><path class="cls-2" d="M35.11,57.78a.78.78,0,0,1-.65-.36.76.76,0,0,1,.25-1.05L41,52.43a.76.76,0,0,1,.81,1.29l-6.3,3.94A.72.72,0,0,1,35.11,57.78Z"/><path class="cls-2" d="M53.25,46.45A.76.76,0,0,1,52.92,45l6.09-3a.75.75,0,0,1,1,.35.75.75,0,0,1-.35,1l-6.09,3A.78.78,0,0,1,53.25,46.45Z"/><path class="cls-2" d="M59,57.61a.72.72,0,0,1-.4-.12l-6-3.75a.76.76,0,1,1,.81-1.29l6,3.75a.77.77,0,0,1,.24,1A.78.78,0,0,1,59,57.61Z"/><path class="cls-1" d="M47.2,56a7.39,7.39,0,1,1,7.57-7.39A7.48,7.48,0,0,1,47.2,56Zm0-13.25a5.87,5.87,0,1,0,6,5.86A6,6,0,0,0,47.2,42.78Z"/><path class="cls-1" d="M47.2,36.16a4.08,4.08,0,1,1,4.17-4.07A4.13,4.13,0,0,1,47.2,36.16Zm0-6.63a2.56,2.56,0,1,0,2.64,2.56A2.61,2.61,0,0,0,47.2,29.53Z"/><path class="cls-1" d="M47.2,69.28a4.08,4.08,0,1,1,4.17-4.08A4.13,4.13,0,0,1,47.2,69.28Zm0-6.63a2.55,2.55,0,1,0,2.64,2.55A2.61,2.61,0,0,0,47.2,62.65Z"/><path class="cls-1" d="M32,45.33a4.17,4.17,0,0,1-1.84-.43A4.06,4.06,0,0,1,28,42.52a4,4,0,0,1,.23-3.09,4.22,4.22,0,0,1,5.58-1.82h0A4,4,0,0,1,35.93,40a3.92,3.92,0,0,1-.23,3.09A4.19,4.19,0,0,1,32,45.33Zm0-6.63a2.65,2.65,0,0,0-2.37,1.42A2.47,2.47,0,0,0,29.46,42a2.56,2.56,0,0,0,1.33,1.49,2.68,2.68,0,0,0,3.55-1.14,2.47,2.47,0,0,0,.15-1.92A2.56,2.56,0,0,0,33.16,39h0A2.62,2.62,0,0,0,32,38.7Z"/><path class="cls-1" d="M32,63a4.19,4.19,0,0,1-3.25-1.52,3.94,3.94,0,0,1-.89-3,4,4,0,0,1,1.55-2.74,4.23,4.23,0,0,1,5.83.64,4,4,0,0,1,.9,3,4.06,4.06,0,0,1-1.55,2.74h0A4.24,4.24,0,0,1,32,63Zm2.12-1.48ZM32,56.42a2.68,2.68,0,0,0-1.65.56,2.54,2.54,0,0,0-1,1.72,2.44,2.44,0,0,0,.55,1.85,2.71,2.71,0,0,0,3.73.41,2.54,2.54,0,0,0,1-1.71,2.47,2.47,0,0,0-.55-1.86A2.69,2.69,0,0,0,32,56.42Z"/><path class="cls-1" d="M62.39,45.33a4.19,4.19,0,0,1-3.73-2.25A4,4,0,0,1,58.43,40a4,4,0,0,1,2.1-2.38h0a4.22,4.22,0,0,1,5.58,1.82,4,4,0,0,1,.23,3.09,4,4,0,0,1-2.11,2.38A4.17,4.17,0,0,1,62.39,45.33Zm0-6.63A2.62,2.62,0,0,0,61.2,39h0a2.56,2.56,0,0,0-1.33,1.49A2.47,2.47,0,0,0,60,42.39a2.68,2.68,0,0,0,3.55,1.14A2.56,2.56,0,0,0,64.9,42a2.44,2.44,0,0,0-.15-1.91A2.66,2.66,0,0,0,62.38,38.7Zm-1.51-.41Z"/><path class="cls-1" d="M62.38,63a4.24,4.24,0,0,1-2.59-.88,4,4,0,0,1-.66-5.74A4.24,4.24,0,0,1,65,55.78a4,4,0,0,1,1.55,2.75,3.93,3.93,0,0,1-.89,3A4.19,4.19,0,0,1,62.38,63Zm0-6.62a2.67,2.67,0,0,0-2.08,1,2.47,2.47,0,0,0-.55,1.86,2.5,2.5,0,0,0,1,1.71h0a2.69,2.69,0,0,0,3.72-.41A2.44,2.44,0,0,0,65,58.7,2.54,2.54,0,0,0,64,57,2.74,2.74,0,0,0,62.39,56.42Z"/></svg>