<svg id="Layer_1" data-name="Layer 1" xmlns="http://www.w3.org/2000/svg" viewBox="0 0 96 96"><defs><style>.cls-1{fill:#003d60;}.cls-2{fill:#00baee;}</style></defs><title>2020-From-Nolan</title><path class="cls-1" d="M48,17.52A30.48,30.48,0,1,1,17.52,48,30.48,30.48,0,0,1,48,17.52M48,16A32,32,0,1,0,80,48,32,32,0,0,0,48,16Z"/><rect class="cls-2" x="26.5" y="47.04" width="37.57" height="1.5"/><rect class="cls-2" x="26.5" y="42.87" width="37.57" height="1.5"/><path class="cls-1" d="M69,58.14H67.47a.75.75,0,0,1,0-1.5h1.28V33.93H31.84v1.9a.75.75,0,0,1-1.5,0V33.68a1.25,1.25,0,0,1,1.25-1.25H69a1.25,1.25,0,0,1,1.25,1.25V56.89A1.25,1.25,0,0,1,69,58.14Z"/><path class="cls-1" d="M63.57,63.57H27a1.25,1.25,0,0,1-1.25-1.25v-24A1.25,1.25,0,0,1,27,37H63.57a1.25,1.25,0,0,1,1.25,1.25v24A1.25,1.25,0,0,1,63.57,63.57Zm-36.32-1.5H63.32V38.52H27.25Z"/><path class="cls-1" d="M33.18,59.4H30.67a.75.75,0,1,1,0-1.5h2.51a.75.75,0,0,1,0,1.5Z"/><path class="cls-1" d="M38.1,59.4H35.6a.75.75,0,0,1,0-1.5h2.5a.75.75,0,0,1,0,1.5Z"/></svg>