<?xml version="1.0" encoding="utf-8"?>
<!-- Generator: Adobe Illustrator 23.0.1, SVG Export Plug-In . SVG Version: 6.00 Build 0)  -->
<svg version="1.1" id="Layer_1" xmlns="http://www.w3.org/2000/svg" xmlns:xlink="http://www.w3.org/1999/xlink" x="0px" y="0px"
	 viewBox="0 0 300.2 54.1" style="enable-background:new 0 0 300.2 54.1;" xml:space="preserve">
<style type="text/css">
	.st0{fill:#FEFEFE;}
</style>
<path class="st0" d="M280.2,17.3c-0.1,1.3-1.2,2.3-2.4,2.3c-1.3,0-2.2-1-2.1-2.3c0.1-1.3,1.2-2.3,2.4-2.3
	C279.3,15,280.3,16,280.2,17.3 M300.1,25.3c0-1.1-0.9-1.7-2.3-1.7c-3.5,0-7.8,2.8-11.3,8.1l2.6-5.9c0.4-0.9,0.1-1.5-0.7-1.5
	c-0.1,0-0.3,0-0.4,0c0,0-0.7,0.2-5,1.2c0.9,0.4,1.1,0.6,0.7,1.5l-8.8,19.3l0.4,0.3l4.9-0.7c7.8-17.9,13.3-19.6,14.4-19.6
	c0.4,0,0.7,0.3,0.7,0.9c0,0.6-0.3,1.7-1.4,3.6l4.6-2C299.5,27.4,300.1,26.3,300.1,25.3 M276.5,25.8c0.4-0.8,0.2-1.5-0.7-1.5
	c-0.2,0-0.4,0-0.6,0.1l-5,1.2c0.9,0.4,1,0.6,0.6,1.6c-2.5,5.3-4.7,9.9-7.5,15.9c-0.9,2-0.1,3.5,2.1,3.5c4.2,0,7.3-2,7.9-2.5l1.4-2.1
	c-2.5,2-4.5,2.7-5.9,2.7c-1,0-0.7-0.8-0.5-1.4C273.8,31.7,276.5,25.8,276.5,25.8 M218.4,11.3c0.4-0.2,1.4-0.8,2.2-1.1
	c-1.8,0.2-3.2,0.4-4.5,0.7c-7.2,1.6-10.4,7.4-13.1,13.3c-2.1,4.7-4.1,9.7-5.9,13.4c-1.3,2.7-3.4,6.4-5.6,7.5l-0.9,1.7
	c4.7-2.3,8.3-4.7,11.1-8.9c3.1-4.7,5-10.2,7.4-15.2C211.3,18.3,214.1,13.7,218.4,11.3 M228.6,13.3c0-7.6-7.8-10.9-15.8-10.9
	c-11.7,0-24,7-24,18.4c0,3.6,1.6,7.4,4.9,9.7h4.9c-5.1-2.7-7.5-6.5-7.5-11.1c0-9.5,10.3-15.3,19.4-15.3c7.4,0,12.8,3.3,12.8,10.4
	c0,5.8-4.7,10-10.4,11.2l0.2,0.5c2.8,0.5,5.6,3.6,5.6,8.5c0,12-12,17.6-23,17.6c-7.8,0-13.7-2.9-13.7-7.5c0-2.6,1.9-4.9,4.5-5.6
	l0-0.1c-4.8,0.3-8.6,2.6-8.6,6.5c0,5.9,9.3,8.3,17.3,8.3c15.6,0,29.4-7.4,29.4-20.3c0-3.5-2-7.1-5.1-8.9
	C225.1,22.4,228.6,18.7,228.6,13.3 M158.2,31.4c0.7-1.4,1.6-3.4,1.6-5c0-2.1-1.9-2.4-3.4-2.4c-4.4,0-8.4,4.5-10.9,7.9
	c0.4-0.8,0.8-1.9,1.3-2.9c0.8-1.7,1.5-3.5,1.5-3.9c0-0.6-0.4-0.8-0.9-0.8c-0.4,0-1.4,0.2-2.5,0.5c-1,0.3-2.1,0.5-3.2,0.8
	c0.9,0.4,1.1,0.8,0.7,1.7c-1.5,3.6-8,17.3-8.8,19l0.4,0.2l5-0.7c2.6-5.7,7.8-15.6,13.2-19c0.5-0.3,1.4-0.8,2.2-0.8
	c0.4,0,0.6,0.3,0.6,0.6c0,0.6-0.3,1.5-1,3c-2.4,5.5-5.3,10.7-7.6,16.5l0.4,0.2l4.8-0.6c0.9-1.9,1.4-3,1.4-3
	c2.7-5.8,7.1-13.1,11.9-16c0.5-0.3,1.2-0.7,1.9-0.7c0.4,0,0.6,0.3,0.6,0.7c0,1.3-3.6,7.9-4.5,9.6c-0.9,1.9-3.2,6.1-3.2,8
	c0,1.6,1.4,2.3,2.8,2.3c2.4,0,4.8-0.9,7.3-2.4l1.6-2.2c-2.3,1.7-4.2,2.7-5.7,2.7c-0.6,0-0.9-0.3-0.9-0.7c0-0.7,0.4-1.5,0.6-2.1
	c1.7-4.1,4.2-8.2,6-12.2c0.4-1,0.9-2.1,0.9-3.3c0-2-1.7-2.4-3.2-2.4C164.9,24,161,28.1,158.2,31.4 M114.7,17.3
	c0.1-1.3-0.9-2.3-2.2-2.3c-1.3,0-2.3,1-2.4,2.3c-0.1,1.3,0.9,2.3,2.2,2.3C113.5,19.5,114.6,18.5,114.7,17.3 M110.6,25.8
	c0.4-0.8,0.2-1.5-0.7-1.5c-0.2,0-0.4,0-0.6,0.1l-5,1.2c0.9,0.4,1.1,0.6,0.6,1.6c-2.6,5.4-4.8,10-7.5,15.9c-0.9,2-0.2,3.5,2.1,3.5
	c4.2,0,7.3-1.9,7.9-2.4l1.4-2.1c-2.5,2-4.7,2.7-5.9,2.7c-0.9,0-0.7-0.8-0.5-1.4C107.8,31.7,110.6,25.8,110.6,25.8 M103.8,12.3
	c0.4-0.8,0.2-1.5-0.7-1.5c-0.2,0-0.4,0-0.6,0.1l-4.9,1.2c0.9,0.4,1.1,0.6,0.6,1.6c-2.6,5.4-10.9,23.5-13.6,29.4
	c-0.9,2-0.2,3.5,2.1,3.5c4.2,0,7.3-1.9,7.9-2.4l1.4-2.1c-2.5,2-4.5,2.7-5.8,2.7c-0.9,0-0.7-0.8-0.5-1.4
	C101.1,18.3,103.8,12.3,103.8,12.3 M244.9,12.3c0.4-0.8,0.2-1.5-0.7-1.5c-0.2,0-0.4,0-0.6,0.1l-4.9,1.2c0.9,0.4,1.1,0.6,0.6,1.6
	c-2.6,5.4-10.9,23.5-13.6,29.4c-0.9,2-0.1,3.5,2.1,3.5c4.2,0,7.3-1.9,7.9-2.4l1.4-2.1c-2.5,2-4.5,2.7-5.9,2.7
	c-0.9,0-0.7-0.8-0.5-1.4C242.2,18.3,244.9,12.3,244.9,12.3 M76.2,17.3c0.1-1.3-0.9-2.3-2.2-2.3c-1.3,0-2.3,1-2.4,2.3
	c-0.1,1.3,0.9,2.3,2.2,2.3C75.1,19.5,76.1,18.5,76.2,17.3 M91.2,12.3c0.4-0.8,0.2-1.5-0.7-1.5c-0.2,0-0.4,0-0.6,0.1l-4.9,1.2
	c0.9,0.4,1.1,0.6,0.6,1.6c-2.6,5.4-10.9,23.5-13.6,29.4c-0.9,2-0.2,3.5,2.1,3.5c4.2,0,7.3-1.9,7.9-2.4l1.4-2.1
	c-2.5,2-4.5,2.7-5.9,2.7c-0.9,0-0.7-0.8-0.5-1.4C88.5,18.3,91.2,12.3,91.2,12.3 M72.1,25.8c0.4-0.8,0.2-1.5-0.7-1.5
	c-0.2,0-0.4,0-0.6,0.1l-5,1.2c0.9,0.4,1.1,0.6,0.6,1.6c-2.6,5.4-4.8,10-7.5,15.9c-0.9,2-0.2,3.5,2.1,3.5c4.2,0,7.3-1.9,7.9-2.4
	l1.4-2.1c-2.5,2-4.6,2.7-5.8,2.7c-1,0-0.7-0.8-0.5-1.4C69.4,31.7,72.1,25.8,72.1,25.8 M91,2.5l3.4-2.5c-1.5,0-2.4,0-3.4,0.1
	C74.9,1.3,64.9,13.7,57,26.4c-3.7,6-8.7,16.7-14.5,20.4c-1,0.6-1.9,1.2-3,1.4c3.2-4.8,4.6-11.4,5.7-16.9c0.5-2.2,1.2-6.1,2.1-9.9
	s2-7.4,3.1-9.2c0.5-0.7,0.9-1.3,1.7-1.7V9.1c-6.9,4.5-11.5,11.4-16.1,18.2C32.2,33,24.2,46.4,17.4,48.2c5.3-8,13.7-23.5,13.7-33
	c0-6.8-5-10.7-12-10.7c-10.4,0-18.9,7-18.9,17.2c0,3.2,1.3,7,4.2,9.3h4.8C4.3,29,2,24.7,2,20.5C2,12.4,8.7,6.1,17.3,6.1
	c6.1,0,8.7,4.1,8.7,9.3c0,8.5-9.6,26.2-14.7,34l0.1,0.2c1,0.2,1.8,0.2,2.6,0.2c1.3,0,2.8-0.3,4.1-0.7c4.4-1.4,9.3-6.4,13.7-12.3
	c4.1-5.4,7.8-10.9,10.4-14.7c-1.9,6.7-2.7,12.6-4.5,18.9c-0.8,2.8-1.6,5.9-3.1,8.4l0.1,0.1c0.8,0.2,1.5,0.2,2.3,0.2
	c1.2,0,2.4-0.2,3.5-0.6c6.7-2.4,13.4-12.4,18.9-21.6c3.6-6.1,7.3-12.7,12.4-17.7C76.5,5.3,82.4,2.4,91,2.5 M251.8,40
	c-0.5,1.3-1,2.7-1,3.8c0,1.5,0.8,2.9,3.3,2.9c2.4,0,4.8-1,6.8-2.2l1.4-2c-2.2,1.6-3.8,2.3-5.2,2.3c-1,0-1.2-0.5-1.2-1.1
	c0-1.2,0.7-2.9,1.2-4.1c2.6-6.3,7.3-15.8,7.3-15.8l-5.3,1.2c-1-0.5-2.3-0.6-3.4-0.6c-4.9,0-8.7,2.8-11.3,6.1c-2.5,3.2-6,9.4-6,12.9
	c0,2.1,1.3,3.3,3.6,3.3C245.9,46.8,249,44.1,251.8,40 M257.4,28.2c-5.8,11.7-10.1,16.3-12.8,16.3c-0.8,0-1-0.4-1-1.2
	c0-3.7,5.3-11.8,6.7-13.6c1.8-2.2,4.2-4.2,6.7-4.2c0.6,0,1.2,0.1,1.6,0.3L257.4,28.2 M123.7,40c-0.5,1.3-1,2.7-1,3.8
	c0,1.5,0.8,2.9,3.3,2.9c2.4,0,4.8-0.9,6.8-2.2l1.4-2c-2.2,1.6-3.8,2.3-5.2,2.3c-1,0-1.2-0.5-1.2-1.1c0-1.2,0.7-2.9,1.2-4.1
	c2.6-6.3,7.3-15.8,7.3-15.8l-5.3,1.2c-1-0.5-2.3-0.6-3.4-0.6c-4.9,0-8.7,2.8-11.3,6.1c-2.5,3.2-6,9.4-6,12.9c0,2.1,1.3,3.3,3.6,3.3
	C117.8,46.8,120.9,44.1,123.7,40 M129.3,28.2c-5.8,11.7-10.2,16.3-12.8,16.3c-0.8,0-1-0.4-1-1.2c0-3.7,5.3-11.8,6.7-13.6
	c1.8-2.2,4.2-4.2,6.7-4.2c0.6,0,1.2,0.1,1.6,0.3L129.3,28.2"/>
</svg>
