<svg id="Layer_1" data-name="Layer 1" xmlns="http://www.w3.org/2000/svg" viewBox="0 0 96 96"><defs><style>.cls-1{fill:#003d60;}.cls-2{fill:#00baee;}</style></defs><title>2020-From-Nolan</title><path class="cls-1" d="M48,17.52A30.48,30.48,0,1,1,17.52,48,30.48,30.48,0,0,1,48,17.52M48,16A32,32,0,1,0,80,48,32,32,0,0,0,48,16Z"/><path class="cls-1" d="M65.12,54.5H43.49a.76.76,0,1,1,0-1.52H65.12a.76.76,0,0,1,0,1.52Z"/><path class="cls-1" d="M65.12,59.31H43.49a.76.76,0,1,1,0-1.52H65.12a.76.76,0,1,1,0,1.52Z"/><path class="cls-1" d="M57.6,44.87H43.49a.76.76,0,1,1,0-1.52H57.6a.76.76,0,1,1,0,1.52Z"/><path class="cls-1" d="M57.6,49.69H43.49a.77.77,0,0,1,0-1.53H57.6a.77.77,0,0,1,0,1.53Z"/><path class="cls-2" d="M34.47,43.94a.57.57,0,0,1-.57-.57l0-11.59a.57.57,0,0,1,.57-.57h0a.56.56,0,0,1,.57.57l0,11.58a.58.58,0,0,1-.57.58Z"/><path class="cls-2" d="M38.25,60.39h0a.57.57,0,0,1-.52-.35L36.43,57a.59.59,0,0,1,0-.22l-.06-24.91a.58.58,0,0,1,.17-.41.6.6,0,0,1,.41-.16h2.64a.56.56,0,0,1,.57.57l0,25a.59.59,0,0,1,0,.23l-1.31,3A.58.58,0,0,1,38.25,60.39Zm-.73-3.76.74,1.74.73-1.7,0-24.26h-1.5Z"/><path class="cls-1" d="M69.73,64.63H27.9a.77.77,0,0,1-.76-.77V37.41a.76.76,0,0,1,.76-.76H31a.76.76,0,1,1,0,1.52H28.66V63.1H69V38.17H43.41a.76.76,0,0,1,0-1.52H69.73a.76.76,0,0,1,.76.76V63.86A.77.77,0,0,1,69.73,64.63Z"/><path class="cls-2" d="M62.81,42.64a.57.57,0,0,1-.57-.57V41a.57.57,0,0,1,.57-.57.58.58,0,0,1,.57.57v1A.58.58,0,0,1,62.81,42.64Z"/><path class="cls-2" d="M62.81,52a.57.57,0,0,1-.57-.57V50.4a.57.57,0,0,1,.57-.57.58.58,0,0,1,.57.57v1.05A.58.58,0,0,1,62.81,52Z"/><path class="cls-2" d="M62.81,51a2.79,2.79,0,0,1-2.89-2.66.57.57,0,0,1,.57-.57.56.56,0,0,1,.57.57,1.76,1.76,0,0,0,3.49,0,1.55,1.55,0,0,0-1.26-1.44,4.17,4.17,0,0,0-.54-.07,4.36,4.36,0,0,1-.69-.09A2.89,2.89,0,0,1,61,46.2a2.59,2.59,0,0,1-1-2.05,2.9,2.9,0,0,1,5.78,0,.58.58,0,0,1-1.15,0,1.76,1.76,0,0,0-3.49,0,1.47,1.47,0,0,0,.6,1.14,1.92,1.92,0,0,0,.66.32,3.73,3.73,0,0,0,.52.06,4.49,4.49,0,0,1,.71.1,2.68,2.68,0,0,1,2.15,2.55A2.79,2.79,0,0,1,62.81,51Z"/></svg>