<svg id="Layer_1" data-name="Layer 1" xmlns="http://www.w3.org/2000/svg" viewBox="0 0 96 96"><defs><style>.cls-1{fill:#003d60;}.cls-2{fill:#00baee;}</style></defs><title>2020-From-Nolan</title><path class="cls-1" d="M48,17.52A30.48,30.48,0,1,1,17.52,48,30.48,30.48,0,0,1,48,17.52M48,16A32,32,0,1,0,80,48,32,32,0,0,0,48,16Z"/><path class="cls-1" d="M48,72a.81.81,0,0,1-.37-.09A33.39,33.39,0,0,1,30.84,49.1a40.88,40.88,0,0,1-.64-13.91.76.76,0,0,1,.75-.63c12.53,0,16.35-6.69,16.39-6.76a.77.77,0,0,1,.67-.4h0a.79.79,0,0,1,.67.4c0,.07,3.85,6.76,16.38,6.76a.75.75,0,0,1,.75.63C65.85,35.4,69,56,53.53,68.45a.76.76,0,0,1-1.07-.12.77.77,0,0,1,.11-1.07c13.29-10.69,12.2-27.71,11.82-31.19-10.2-.18-14.8-4.56-16.38-6.56-1.58,2-6.19,6.38-16.39,6.56a41.38,41.38,0,0,0,.72,12.76,31.35,31.35,0,0,0,16,21.72.75.75,0,0,1,.3,1A.74.74,0,0,1,48,72Z"/><path class="cls-2" d="M45.94,57h-.08a.77.77,0,0,1-.55-.32l-4.84-7a.76.76,0,1,1,1.25-.87l4.34,6.26L57.51,44a.76.76,0,1,1,1.06,1.1L46.47,56.78A.79.79,0,0,1,45.94,57Z"/></svg>