<svg xmlns="http://www.w3.org/2000/svg" xmlns:xlink="http://www.w3.org/1999/xlink" version="1.1" x="0px" y="0px" viewBox="0 0 100 100" enable-background="new 0 0 100 100" xml:space="preserve" width="100px" height="100px"><g><path fill="#000000" d="M13.085,61.014l35.899,35.901c0.006,0.005,0.012,0.006,0.018,0.011c0.183,0.178,0.396,0.322,0.636,0.422   c0.239,0.099,0.494,0.149,0.75,0.151c0.004,0,0.008,0.002,0.013,0.002c0.261,0,0.52-0.054,0.765-0.153   c0.244-0.104,0.465-0.248,0.648-0.433l35.9-35.901c0.781-0.781,0.781-2.047,0-2.828c-0.391-0.391-0.902-0.586-1.414-0.586   s-1.023,0.195-1.414,0.586L52.4,90.673V5.328c0-1.104-0.896-2-2-2c-1.105,0-2,0.896-2,2v85.346L15.912,58.186   c-0.389-0.391-0.9-0.586-1.413-0.586s-1.022,0.195-1.414,0.586C12.305,58.967,12.305,60.232,13.085,61.014"/></g></svg>