<svg id="Layer_1" data-name="Layer 1" xmlns="http://www.w3.org/2000/svg" viewBox="0 0 96 96"><defs><style>.cls-1{fill:#003d60;}.cls-2{fill:#00baee;}</style></defs><title>2020-From-Nolan</title><path class="cls-1" d="M50.31,75.44a.81.81,0,0,1-.06-1.62A25.8,25.8,0,0,0,73.83,50.28a.81.81,0,0,1,1.62.15,27.45,27.45,0,0,1-25.07,25Z"/><path class="cls-1" d="M74.63,46.43a.8.8,0,0,1-.8-.73A25.84,25.84,0,0,0,50.27,22.2a.81.81,0,0,1,.14-1.61,27.44,27.44,0,0,1,25,25,.81.81,0,0,1-.73.88Z"/><path class="cls-1" d="M21.41,46.44h-.07a.81.81,0,0,1-.73-.87,27.45,27.45,0,0,1,24.93-25,.81.81,0,1,1,.15,1.61A25.86,25.86,0,0,0,22.22,45.7.81.81,0,0,1,21.41,46.44Z"/><path class="cls-1" d="M45.62,75.43h-.08a27.47,27.47,0,0,1-24.94-25,.81.81,0,0,1,1.62-.15A25.84,25.84,0,0,0,45.69,73.81a.81.81,0,0,1,.73.88A.81.81,0,0,1,45.62,75.43Z"/><path class="cls-1" d="M48,64.26A16.23,16.23,0,1,1,64.21,48,16.25,16.25,0,0,1,48,64.26Zm0-30.84A14.61,14.61,0,1,0,62.59,48,14.64,14.64,0,0,0,48,33.42Z"/><circle class="cls-1" cx="47.98" cy="48.03" r="3.43"/><path class="cls-2" d="M48,26.58a.81.81,0,0,1-.81-.81v-9a.82.82,0,0,1,1.63,0v9A.82.82,0,0,1,48,26.58Z"/><path class="cls-2" d="M48,80a.82.82,0,0,1-.81-.81v-9a.82.82,0,0,1,1.63,0v9A.82.82,0,0,1,48,80Z"/><path class="cls-2" d="M79.19,48.82h-9a.81.81,0,0,1,0-1.62h9a.81.81,0,0,1,0,1.62Z"/><path class="cls-2" d="M25.81,48.82h-9a.81.81,0,0,1,0-1.62h9a.81.81,0,0,1,0,1.62Z"/></svg>