<svg id="Layer_1" data-name="Layer 1" xmlns="http://www.w3.org/2000/svg" viewBox="0 0 100 100"><defs><style>.cls-1{fill:#d7d7d7;}</style></defs><title>dotted-arrow</title><path class="cls-1" d="M90,46.52c0-.59.42-.83.93-.54l6,3.48a.57.57,0,0,1,0,1.08L91,54c-.51.29-.93,0-.93-.54Z"/><path class="cls-1" d="M44.79,62.19A12.19,12.19,0,1,1,57,50,12.2,12.2,0,0,1,44.79,62.19Zm0-22.77A10.58,10.58,0,1,0,55.37,50,10.59,10.59,0,0,0,44.79,39.42Z"/><circle class="cls-1" cx="3.46" cy="50" r="1.07"/><circle class="cls-1" cx="9.68" cy="50" r="1.07"/><circle class="cls-1" cx="15.9" cy="50" r="1.07"/><circle class="cls-1" cx="22.12" cy="50" r="1.07"/><circle class="cls-1" cx="28.34" cy="50" r="1.07"/><circle class="cls-1" cx="60.51" cy="50" r="1.07"/><circle class="cls-1" cx="66.73" cy="50" r="1.07"/><circle class="cls-1" cx="72.95" cy="50" r="1.07"/><circle class="cls-1" cx="79.17" cy="50" r="1.07"/><circle class="cls-1" cx="85.39" cy="50" r="1.07"/></svg>