<svg id="Layer_1" data-name="Layer 1" xmlns="http://www.w3.org/2000/svg" viewBox="0 0 96 96"><defs><style>.cls-1{fill:#00baee;}.cls-2{fill:#003d60;}</style></defs><title>payments</title><path class="cls-1" d="M39.31,61H33a.68.68,0,0,1-.5-.22.66.66,0,0,1-.2-.51l.62-12h-.14a.7.7,0,0,1-.7-.7V45.89a.7.7,0,0,1,1.4,0v1h.18a.72.72,0,0,1,.51.22.69.69,0,0,1,.19.51l-.62,12h4.86l-.61-12a.7.7,0,0,1,.7-.73h.2v-1a.7.7,0,0,1,1.4,0v1.69a.7.7,0,0,1-.7.7h-.17l.62,12a.69.69,0,0,1-.19.51A.7.7,0,0,1,39.31,61Z"/><path class="cls-1" d="M51.11,61H44.77a.7.7,0,0,1-.51-.22.69.69,0,0,1-.19-.51l.62-12h-.14a.7.7,0,0,1-.7-.7V45.89a.7.7,0,1,1,1.4,0v1h.18a.68.68,0,0,1,.5.22.65.65,0,0,1,.19.51l-.61,12h4.86l-.62-12a.66.66,0,0,1,.2-.51.68.68,0,0,1,.5-.22h.21v-1a.7.7,0,0,1,1.4,0v1.69a.7.7,0,0,1-.7.7h-.17l.62,12a.69.69,0,0,1-.19.51A.72.72,0,0,1,51.11,61Z"/><path class="cls-1" d="M62.9,61H56.57a.7.7,0,0,1-.7-.73l.61-12h-.13a.7.7,0,0,1-.7-.7V45.89a.7.7,0,0,1,1.4,0v1h.17a.7.7,0,0,1,.51.22.69.69,0,0,1,.19.51l-.62,12h4.87l-.62-12a.69.69,0,0,1,.19-.51.7.7,0,0,1,.51-.22h.2v-1a.7.7,0,1,1,1.4,0v1.69a.7.7,0,0,1-.7.7H63l.61,12a.7.7,0,0,1-.7.73Z"/><path class="cls-2" d="M68.07,67h-40a.7.7,0,0,1,0-1.4h40a.7.7,0,0,1,0,1.4Z"/><path class="cls-2" d="M67.09,64h-38a.7.7,0,1,1,0-1.4h38a.7.7,0,1,1,0,1.4Z"/><path class="cls-2" d="M65.78,61H30.39a.7.7,0,1,1,0-1.4H65.78a.7.7,0,0,1,0,1.4Z"/><path class="cls-2" d="M66.61,43.41H29.24a.71.71,0,0,1-.67-.48L27.26,39.1a.71.71,0,0,1,.37-.86l20-9.18a.73.73,0,0,1,.58,0l20,9.18a.71.71,0,0,1,.37.86l-1.31,3.83A.71.71,0,0,1,66.61,43.41ZM29.74,42H66.1l1-2.76L47.92,30.47,28.79,39.25Z"/><path class="cls-2" d="M56.61,39h-17a.7.7,0,0,1-.3-1.33l8.52-4.07a.72.72,0,0,1,.61,0l8.52,4.07a.69.69,0,0,1,.38.79A.7.7,0,0,1,56.61,39Zm-14-1.4H53.52L48.09,35Z"/><path class="cls-2" d="M48,17.52A30.48,30.48,0,1,1,17.52,48,30.48,30.48,0,0,1,48,17.52M48,16A32,32,0,1,0,80,48,32,32,0,0,0,48,16Z"/></svg>